<svg width="136" height="32" viewBox="0 0 136 32" fill="none" xmlns="http://www.w3.org/2000/svg">
<g clip-path="url(#clip0_247_10711)">
<path d="M15.5199 3.36L4.63994 21.44C1.83994 26.08 5.19994 32 10.6399 32H32.2399C37.6799 32 41.0399 26.08 38.2399 21.44L27.4399 3.36C24.7199 -1.12 18.1599 -1.12 15.5199 3.36ZM26.1599 4.24L37.0399 22.32C38.5599 24.88 36.7199 28.16 33.7599 28.16H11.9999C9.03994 28.16 7.19994 24.88 8.71994 22.32L19.5999 4.24C21.0399 1.68 24.6399 1.68 26.1599 4.24Z" fill="#DAAB6B"/>
<path d="M21.8399 8.00012L14.6399 20.0001C13.5199 21.8401 14.8799 24.2401 17.0399 24.2401H31.4399C33.5999 24.2401 34.9599 21.9201 33.8399 20.0001L26.6399 8.00012C25.5199 6.16012 22.9599 6.16012 21.8399 8.00012ZM26.5599 10.8001L31.2799 18.6401C31.6799 19.3601 31.1999 20.2401 30.3199 20.2401H20.9599C20.1599 20.2401 19.5999 19.3601 19.9999 18.6401L24.7199 10.8001C25.1199 10.1601 26.1599 10.1601 26.5599 10.8001Z" fill="#DAAB6B"/>
<path d="M55.6 8.24006C57.76 8.24006 59.5199 9.04006 60.9599 10.4801C62.3999 12.0001 63.12 13.9201 63.12 16.1601C63.12 18.4001 62.3999 20.2401 60.9599 21.8401C59.5199 23.3601 57.76 24.0801 55.6 24.0801C53.68 24.0801 52.08 23.2801 50.8 21.6801V23.6801H47.2V2.56006H50.8V10.5601C52.08 8.96006 53.68 8.24006 55.6 8.24006ZM59.44 16.0801C59.44 14.8001 59.04 13.7601 58.24 12.8801C57.44 12.0001 56.4 11.5201 55.12 11.5201C53.84 11.5201 52.72 12.0001 51.92 12.8801C51.12 13.7601 50.72 14.8001 50.72 16.0801C50.72 17.3601 51.12 18.4801 51.92 19.3601C52.72 20.2401 53.76 20.6401 55.12 20.6401C56.4 20.6401 57.44 20.2401 58.24 19.3601C59.04 18.4801 59.44 17.3601 59.44 16.0801Z" fill="#27AE60"/>
<path d="M73.1199 24.0002C70.7999 24.0002 68.8799 23.2802 67.3599 21.7602C65.8399 20.2402 65.1199 18.4002 65.1199 16.0802C65.1199 13.7602 65.8399 11.9202 67.3599 10.4002C68.8799 8.88016 70.7999 8.16016 73.1999 8.16016C74.7199 8.16016 76.1599 8.56016 77.4399 9.28016C78.7199 10.0002 79.5999 11.0402 80.2399 12.3202L77.2799 13.9202C76.3199 12.3202 74.9599 11.5202 73.2799 11.5202C71.9999 11.5202 70.8799 11.9202 69.9999 12.8002C69.1199 13.6802 68.7199 14.7202 68.7199 16.0802C68.7199 17.3602 69.1199 18.4802 69.9999 19.3602C70.7999 20.2402 71.9199 20.6402 73.1999 20.6402C73.9999 20.6402 74.7999 20.4002 75.5999 20.0002C76.3199 19.6002 76.8799 18.9602 77.2799 18.3202L80.2399 20.0802C79.5999 21.2802 78.6399 22.2402 77.3599 22.9602C76.0799 23.6802 74.7199 24.0002 73.1199 24.0002Z" fill="#27AE60"/>
<path d="M89.8398 24.0002C87.5198 24.0002 85.5998 23.2802 84.0798 21.7602C82.5598 20.2402 81.8398 18.4002 81.8398 16.0802C81.8398 13.7602 82.5598 11.9202 84.0798 10.4002C85.5998 8.88016 87.5198 8.16016 89.9198 8.16016C91.4398 8.16016 92.8798 8.56016 94.1598 9.28016C95.4398 10.0002 96.3198 11.0402 96.9598 12.3202L93.9998 13.9202C93.0398 12.3202 91.6798 11.5202 89.9998 11.5202C88.7198 11.5202 87.5998 11.9202 86.7198 12.8002C85.8398 13.6802 85.4398 14.7202 85.4398 16.0802C85.4398 17.3602 85.8398 18.4802 86.7198 19.3602C87.5198 20.2402 88.6398 20.6402 89.9198 20.6402C90.7198 20.6402 91.5198 20.4002 92.3198 20.0002C93.0398 19.6002 93.5998 18.9602 93.9998 18.3202L96.9598 20.0802C96.3198 21.2802 95.3598 22.2402 94.0798 22.9602C92.7998 23.6802 91.3598 24.0002 89.8398 24.0002Z" fill="#27AE60"/>
<path d="M100.96 24.0798C100.32 24.0798 99.8401 23.8398 99.4401 23.4398C99.0401 23.0398 98.8 22.4798 98.8 21.9198C98.8 21.3598 99.0401 20.7998 99.4401 20.3998C99.8401 19.9998 100.4 19.7598 100.96 19.7598C101.52 19.7598 102.08 19.9998 102.48 20.3998C102.88 20.7998 103.12 21.2798 103.12 21.9198C103.12 22.5598 102.88 23.0398 102.48 23.4398C102.08 23.9198 101.6 24.0798 100.96 24.0798Z" fill="#27AE60"/>
<path d="M120.56 23.6801H116.08L110.88 17.0401L109.76 18.0801V23.6801H106.16V2.56006H109.76V14.0001L115.6 8.56006H120.24L113.44 14.8001L120.56 23.6801Z" fill="#27AE60"/>
<path d="M133.84 10.9601L126.16 20.6401H134.08V23.6801H121.2V21.2001L129.04 11.6001H121.6V8.56006H133.84V10.9601Z" fill="#27AE60"/>
</g>
<defs>
<clipPath id="clip0_247_10711">
<rect width="136" height="32" fill="white"/>
</clipPath>
</defs>
</svg>
